<?xml version="1.0" standalone="no"?><!DOCTYPE svg PUBLIC "-//W3C//DTD SVG 1.1//EN" "http://www.w3.org/Graphics/SVG/1.1/DTD/svg11.dtd"><svg width="200" height="200" viewBox="0 0 200 200" version="1.1" xmlns="http://www.w3.org/2000/svg" xmlns:xlink="http://www.w3.org/1999/xlink"><defs><style type="text/css"><![CDATA[
@font-face { font-family: ifont; src: url("//at.alicdn.com/t/font_1442373896_4754455.eot?#iefix") format("embedded-opentype"), url("//at.alicdn.com/t/font_1442373896_4754455.woff") format("woff"), url("//at.alicdn.com/t/font_1442373896_4754455.ttf") format("truetype"), url("//at.alicdn.com/t/font_1442373896_4754455.svg#ifont") format("svg"); }

]]></style></defs><g class="transform-group"><g transform="scale(0.1953125, 0.1953125)"><path d="M512 1024C229.239467 1024 0 794.760533 0 512 0 229.239467 229.239467 0 512 0 794.760533 0 1024 229.239467 1024 512 1024 794.760533 794.760533 1024 512 1024ZM512 34.133333C248.081067 34.133333 34.133333 248.081067 34.133333 512 34.133333 775.918933 248.081067 989.866667 512 989.866667 775.918933 989.866667 989.866667 775.918933 989.866667 512 989.866667 248.081067 775.918933 34.133333 512 34.133333ZM705.911467 527.735467C691.473067 536.098133 455.5776 669.5936 438.510933 678.877867 425.984 685.6704 409.6 678.161067 409.6 662.698667 409.6 646.997333 409.6 371.336533 409.6 360.516267 409.6 346.453333 424.448 336.008533 439.125333 344.234667 450.8672 350.8224 685.841067 483.669333 705.911467 495.0016 719.0528 502.4768 718.848 520.260267 705.911467 527.735467Z" fill="#14b8e2"></path></g></g></svg>